<?xml version="1.0" encoding="UTF-8"?>
<svg width="344px" height="128px" viewBox="0 0 344 128" version="1.1" xmlns="http://www.w3.org/2000/svg" xmlns:xlink="http://www.w3.org/1999/xlink">
    <title>EPS-BS-logo</title>
    <defs>
        <polygon id="path-1" points="0.06 0.957 34.174 0.957 34.174 74.692 0.06 74.692"></polygon>
    </defs>
    <g id="Page-1" stroke="none" stroke-width="1" fill="none" fill-rule="evenodd">
        <g id="EPS-BS-logo">
            <g id="Group-3">
                <mask id="mask-2" fill="white">
                    <use xlink:href="#path-1"></use>
                </mask>
                <g id="Clip-2"></g>
                <path d="M10.563,40.517 L10.563,64.128 L15.119,64.128 C17.259,64.128 18.934,63.818 20.143,63.196 C21.35,62.575 22.266,61.713 22.887,60.607 C23.508,59.504 23.887,58.191 24.025,56.672 C24.164,55.155 24.234,53.497 24.234,51.702 C24.234,49.837 24.13,48.216 23.922,46.834 C23.716,45.454 23.301,44.281 22.68,43.313 C21.989,42.347 21.057,41.64 19.884,41.19 C18.709,40.742 17.156,40.517 15.223,40.517 L10.563,40.517 Z M10.563,10.898 L10.563,31.196 L15.327,31.196 C18.849,31.196 21.213,30.316 22.42,28.556 C23.629,26.795 24.234,24.224 24.234,20.841 C24.234,17.526 23.56,15.041 22.214,13.384 C20.867,11.728 18.434,10.898 14.913,10.898 L10.563,10.898 Z M0,74.692 L0,0.957 L15.432,0.957 C18.813,0.957 21.695,1.475 24.078,2.51 C26.46,3.546 28.41,4.928 29.93,6.652 C31.446,8.379 32.533,10.365 33.191,12.607 C33.847,14.852 34.174,17.182 34.174,19.598 L34.174,22.29 C34.174,24.294 34.02,25.984 33.709,27.365 C33.397,28.747 32.933,29.954 32.311,30.99 C31.136,32.923 29.341,34.58 26.925,35.96 C29.411,37.135 31.24,38.86 32.414,41.138 C33.587,43.417 34.174,46.523 34.174,50.459 L34.174,54.602 C34.174,61.091 32.604,66.062 29.463,69.513 C26.321,72.967 21.298,74.692 14.394,74.692 L0,74.692 L0,74.692 Z" id="Fill-1" fill="#060403" mask="url(#mask-2)"></path>
            </g>
            <polyline id="Fill-4" fill="#060403" points="52.919 74.692 52.919 0.957 84.4 0.957 84.4 10.898 63.481 10.898 63.481 32.542 81.708 32.542 81.708 42.484 63.481 42.484 63.481 64.128 84.4 64.128 84.4 74.692 52.919 74.692"></polyline>
            <path d="M110.602,40.517 L110.602,64.128 L115.158,64.128 C117.297,64.128 118.971,63.818 120.181,63.196 C121.387,62.575 122.303,61.713 122.926,60.607 C123.546,59.504 123.926,58.191 124.064,56.672 C124.202,55.155 124.271,53.497 124.271,51.702 C124.271,49.837 124.167,48.216 123.961,46.834 C123.752,45.454 123.338,44.281 122.717,43.313 C122.026,42.347 121.095,41.64 119.921,41.19 C118.746,40.742 117.193,40.517 115.262,40.517 L110.602,40.517 Z M110.602,10.898 L110.602,31.196 L115.364,31.196 C118.886,31.196 121.25,30.316 122.459,28.556 C123.666,26.795 124.271,24.224 124.271,20.841 C124.271,17.526 123.598,15.041 122.251,13.384 C120.905,11.728 118.471,10.898 114.951,10.898 L110.602,10.898 Z M100.038,74.692 L100.038,0.957 L115.468,0.957 C118.851,0.957 121.734,1.475 124.115,2.51 C126.497,3.546 128.447,4.928 129.967,6.652 C131.484,8.379 132.572,10.365 133.229,12.607 C133.884,14.852 134.213,17.182 134.213,19.598 L134.213,22.29 C134.213,24.294 134.057,25.984 133.746,27.365 C133.436,28.747 132.97,29.954 132.349,30.99 C131.173,32.923 129.379,34.58 126.964,35.96 C129.448,37.135 131.277,38.86 132.453,41.138 C133.626,43.417 134.213,46.523 134.213,50.459 L134.213,54.602 C134.213,61.091 132.641,66.062 129.5,69.513 C126.358,72.967 121.335,74.692 114.433,74.692 L100.038,74.692 L100.038,74.692 Z" id="Fill-5" fill="#060403"></path>
            <path d="M163.519,10.898 L163.519,33.889 L169.526,33.889 C171.391,33.889 172.873,33.63 173.979,33.112 C175.083,32.594 175.947,31.854 176.567,30.886 C177.119,29.92 177.5,28.729 177.707,27.313 C177.915,25.898 178.018,24.258 178.018,22.394 C178.018,20.53 177.915,18.891 177.707,17.475 C177.5,16.061 177.086,14.834 176.464,13.798 C175.152,11.867 172.667,10.898 169.008,10.898 L163.519,10.898 Z M152.956,74.692 L152.956,0.957 L169.94,0.957 C182.367,0.957 188.581,8.172 188.581,22.601 C188.581,26.951 187.907,30.645 186.562,33.682 C185.215,36.721 182.85,39.171 179.469,41.035 L190.859,74.692 L179.675,74.692 L169.837,43.209 L163.519,43.209 L163.519,74.692 L152.956,74.692 L152.956,74.692 Z" id="Fill-6" fill="#060403"></path>
            <path d="M240.051,0.957 L240.051,58.122 C240.051,60.54 239.618,62.767 238.756,64.802 C237.893,66.839 236.667,68.651 235.078,70.238 C233.491,71.828 231.662,73.07 229.591,73.967 C227.519,74.863 225.31,75.313 222.962,75.313 C220.615,75.313 218.423,74.863 216.387,73.967 C214.35,73.07 212.537,71.828 210.95,70.238 C209.361,68.651 208.118,66.839 207.223,64.802 C206.323,62.767 205.875,60.54 205.875,58.122 L205.875,0.957 L216.438,0.957 L216.438,57.086 C216.438,59.711 217.061,61.644 218.303,62.886 C219.545,64.128 221.099,64.75 222.962,64.75 C224.826,64.75 226.38,64.128 227.623,62.886 C228.866,61.644 229.486,59.711 229.486,57.086 L229.486,0.957 L240.051,0.957" id="Fill-7" fill="#060403"></path>
            <path d="M292.969,22.187 L282.406,22.187 L282.406,19.805 C282.406,17.389 281.837,15.3 280.697,13.54 C279.559,11.779 277.643,10.898 274.95,10.898 C273.5,10.898 272.326,11.175 271.43,11.728 C270.531,12.281 269.807,12.97 269.254,13.798 C268.701,14.697 268.323,15.714 268.115,16.854 C267.907,17.993 267.805,19.184 267.805,20.426 C267.805,21.876 267.856,23.085 267.961,24.051 C268.063,25.019 268.323,25.881 268.736,26.64 C269.15,27.4 269.754,28.056 270.548,28.607 C271.342,29.161 272.429,29.713 273.811,30.264 L281.889,33.475 C284.234,34.373 286.134,35.426 287.585,36.633 C289.034,37.842 290.174,39.24 291.002,40.828 C291.761,42.484 292.279,44.367 292.556,46.471 C292.831,48.578 292.969,50.977 292.969,53.668 C292.969,56.776 292.659,59.659 292.037,62.316 C291.416,64.975 290.415,67.236 289.034,69.099 C287.585,71.034 285.684,72.552 283.338,73.656 C280.99,74.76 278.125,75.313 274.742,75.313 C272.188,75.313 269.807,74.863 267.599,73.967 C265.388,73.07 263.488,71.828 261.901,70.238 C260.313,68.651 259.054,66.804 258.121,64.698 C257.189,62.593 256.724,60.297 256.724,57.812 L256.724,53.876 L267.286,53.876 L267.286,57.19 C267.286,59.124 267.856,60.867 268.994,62.419 C270.135,63.973 272.051,64.75 274.742,64.75 C276.537,64.75 277.937,64.491 278.937,63.973 C279.937,63.456 280.715,62.714 281.268,61.747 C281.818,60.781 282.147,59.624 282.251,58.277 C282.355,56.931 282.406,55.429 282.406,53.772 C282.406,51.84 282.337,50.251 282.199,49.009 C282.061,47.766 281.785,46.767 281.371,46.006 C280.886,45.247 280.248,44.625 279.455,44.141 C278.661,43.659 277.607,43.142 276.296,42.588 L268.736,39.481 C264.18,37.617 261.126,35.149 259.572,32.077 C258.019,29.006 257.24,25.156 257.24,20.53 C257.24,17.77 257.62,15.145 258.381,12.659 C259.14,10.174 260.279,8.035 261.797,6.239 C263.247,4.444 265.094,3.012 267.338,1.941 C269.582,0.871 272.258,0.336 275.364,0.336 C277.986,0.336 280.386,0.819 282.562,1.786 C284.737,2.753 286.617,4.03 288.205,5.617 C291.381,8.931 292.969,12.729 292.969,17.009 L292.969,22.187" id="Fill-8" fill="#060403"></path>
            <path d="M343.815,95.611 C342.78,96.163 341.417,96.68 339.726,97.165 C338.033,97.647 336.05,97.889 333.771,97.889 C330.871,97.889 328.438,97.042 326.471,95.352 C324.502,93.659 323.518,91.364 323.518,88.465 C323.518,86.807 323.76,85.323 324.244,84.012 C324.726,82.7 325.417,81.491 326.314,80.387 C327.211,79.352 328.23,78.384 329.369,77.487 C330.508,76.59 331.767,75.657 333.149,74.692 L338.431,74.692 C336.36,76.694 334.736,78.834 333.563,81.112 C332.389,83.391 331.804,85.599 331.804,87.74 C331.804,89.397 332.304,90.708 333.305,91.676 C334.305,92.641 335.496,93.126 336.877,93.126 C338.051,93.126 339.068,93.003 339.932,92.762 C340.795,92.52 341.606,92.194 342.366,91.779 L343.815,95.611 Z M343.815,0.957 L343.815,58.122 C343.815,60.54 343.385,62.767 342.522,64.802 C341.657,66.839 340.432,68.651 338.845,70.238 C337.256,71.828 335.428,73.07 333.357,73.967 C331.285,74.863 329.074,75.313 326.729,75.313 C324.381,75.313 322.189,74.863 320.152,73.967 C318.115,73.07 316.304,71.828 314.717,70.238 C313.126,68.651 311.885,66.839 310.987,64.802 C310.09,62.767 309.642,60.54 309.642,58.122 L309.642,0.957 L320.204,0.957 L320.204,57.086 C320.204,59.711 320.826,61.644 322.068,62.886 C323.311,64.128 324.865,64.75 326.729,64.75 C328.593,64.75 330.146,64.128 331.389,62.886 C332.632,61.644 333.253,59.711 333.253,57.086 L333.253,0.957 L343.815,0.957 L343.815,0.957 Z" id="Fill-9" fill="#060403"></path>
            <path d="M96.037,121.815 L100.242,118.969 C101.851,121.691 103.829,123.237 107.106,123.237 C110.138,123.237 112.611,121.691 112.611,119.34 C112.611,116.991 111.003,115.692 107.354,114.393 L104.941,113.465 C99.499,111.424 97.582,108.022 97.582,104.312 C97.582,99.673 101.602,96.086 107.23,96.086 C111.188,96.086 114.59,97.879 116.508,101.653 L112.363,104.065 C111.373,102.024 109.642,100.848 107.23,100.848 C104.88,100.848 102.839,102.086 102.839,104.251 C102.839,106.167 103.766,107.652 107.354,108.95 L109.891,109.878 C115.146,111.795 117.931,114.579 117.931,119.156 C117.931,124.104 113.725,128 106.982,128 C102.406,128 98.51,125.958 96.037,121.815" id="Fill-10" fill="#060403"></path>
            <polygon id="Fill-11" fill="#060403" points="124.981 127.504 130.3 127.504 130.3 83.593 124.981 83.593"></polygon>
            <path d="M149.409,88.479 C149.409,86.376 151.141,84.707 153.244,84.707 C155.41,84.707 157.078,86.376 157.078,88.479 C157.078,90.644 155.41,92.313 153.244,92.313 C151.141,92.313 149.409,90.644 149.409,88.479 Z M143.472,108.704 L162.336,108.704 C161.595,103.631 157.637,100.911 152.935,100.972 C148.42,100.972 144.586,104.003 143.472,108.704 Z M137.722,112.043 C137.722,103.075 144.586,96.086 153.244,96.086 C161.903,96.086 168.212,102.333 168.335,113.342 L143.225,113.342 C143.721,118.846 147.988,122.989 153.616,122.989 C157.513,122.989 160.666,121.258 162.645,119.28 L166.047,122.989 C163.389,125.773 158.996,128 153.616,128 C144.462,128 137.722,120.949 137.722,112.043 L137.722,112.043 Z" id="Fill-12" fill="#060403"></path>
            <path d="M175.51,96.581 L180.829,96.581 L180.829,100.106 C183.18,97.137 186.828,96.086 190.416,96.086 C197.404,96.086 202.353,100.972 202.353,108.641 L202.353,127.504 L197.033,127.504 L197.033,108.95 C197.033,104.436 194.064,101.096 189.24,101.096 C184.911,101.096 181.941,103.508 180.829,107.528 L180.829,127.504 L175.51,127.504 L175.51,96.581" id="Fill-13" fill="#060403"></path>
            <path d="M211.258,127.504 L216.577,127.504 L216.577,96.581 L211.258,96.581 L211.258,127.504 Z M210.083,86.995 C210.083,84.831 211.752,83.098 213.916,83.098 C216.082,83.098 217.751,84.831 217.751,86.995 C217.751,88.169 217.318,89.159 216.577,89.84 L211.258,89.84 C210.516,89.159 210.083,88.169 210.083,86.995 L210.083,86.995 Z" id="Fill-14" fill="#060403"></path>
            <path d="M223.009,121.815 L227.214,118.969 C228.822,121.691 230.802,123.237 234.08,123.237 C237.109,123.237 239.583,121.691 239.583,119.34 C239.583,116.991 237.977,115.692 234.327,114.393 L231.915,113.465 C226.473,111.424 224.555,108.022 224.555,104.312 C224.555,99.673 228.575,96.086 234.203,96.086 C238.162,96.086 241.563,97.879 243.479,101.653 L239.336,104.065 C238.348,102.024 236.615,100.848 234.203,100.848 C231.854,100.848 229.813,102.086 229.813,104.251 C229.813,106.167 230.74,107.652 234.327,108.95 L236.862,109.878 C242.12,111.795 244.902,114.579 244.902,119.156 C244.902,124.104 240.697,128 233.956,128 C229.379,128 225.482,125.958 223.009,121.815" id="Fill-15" fill="#060403"></path>
            <path d="M299.342,102.598 C300.096,102.944 300.704,103.444 301.348,103.971 C302.65,105.042 304.128,106.254 306.984,106.254 C309.84,106.254 311.317,105.042 312.621,103.971 C313.843,102.969 314.896,102.104 317.098,102.104 C317.603,102.104 318.012,101.695 318.012,101.189 C318.012,100.684 317.603,100.274 317.098,100.274 C314.24,100.274 312.763,101.487 311.459,102.557 C310.238,103.559 309.185,104.424 306.984,104.424 C304.784,104.424 303.729,103.559 302.509,102.557 C301.804,101.977 301.074,101.379 300.107,100.934 C299.647,100.723 299.104,100.924 298.892,101.383 C298.682,101.842 298.882,102.387 299.342,102.598" id="Fill-16" fill="#060403"></path>
            <path d="M256.426,102.104 C258.625,102.104 259.681,102.97 260.899,103.971 C262.205,105.042 263.681,106.254 266.538,106.254 C269.394,106.254 270.871,105.042 272.175,103.971 C273.396,102.97 274.449,102.104 276.649,102.104 C278.85,102.104 279.902,102.97 281.123,103.971 C282.427,105.042 283.904,106.254 286.76,106.254 C289.615,106.254 291.094,105.042 292.396,103.971 C293.581,103.001 294.604,102.161 296.662,102.107 C297.168,102.094 297.567,101.674 297.553357,101.169 C297.541,100.663 297.117,100.266 296.615,100.277 C293.927,100.347 292.496,101.52 291.235,102.557 C290.015,103.559 288.96,104.424 286.76,104.424 C284.561,104.424 283.506,103.559 282.285,102.557 C280.981,101.487 279.504,100.274 276.649,100.274 C273.794,100.274 272.316,101.487 271.013,102.557 C269.792,103.559 268.737,104.424 266.538,104.424 C264.337,104.424 263.283,103.559 262.063,102.557 C260.76,101.487 259.281,100.274 256.426,100.274 C255.92,100.274 255.51,100.684 255.51,101.189 C255.51,101.695 255.92,102.104 256.426,102.104" id="Fill-17" fill="#060403"></path>
            <path d="M317.096,109.052 C314.24,109.052 312.763,110.265 311.459,111.336 C310.238,112.337 309.185,113.203 306.984,113.203 C304.784,113.203 303.729,112.337 302.509,111.336 C301.205,110.265 299.728,109.052 296.872,109.052 C294.017,109.052 292.539,110.265 291.235,111.336 C290.015,112.337 288.96,113.203 286.76,113.203 C284.561,113.203 283.506,112.337 282.285,111.336 C280.981,110.265 279.504,109.052 276.649,109.052 C273.793,109.052 272.316,110.265 271.012,111.336 C269.791,112.337 268.737,113.203 266.538,113.203 C264.337,113.203 263.283,112.337 262.063,111.336 C260.76,110.265 259.281,109.052 256.426,109.052 C255.92,109.052 255.51,109.462 255.51,109.967 C255.51,110.473 255.92,110.883 256.426,110.883 C258.625,110.883 259.681,111.749 260.899,112.751 C262.205,113.821 263.681,115.034 266.538,115.034 C269.394,115.034 270.871,113.821 272.175,112.751 C273.396,111.749 274.449,110.883 276.649,110.883 C278.85,110.883 279.902,111.749 281.123,112.751 C282.427,113.821 283.904,115.034 286.76,115.034 C289.615,115.034 291.094,113.821 292.396,112.751 C293.617,111.749 294.672,110.883 296.872,110.883 C299.073,110.883 300.127,111.749 301.348,112.751 C302.65,113.821 304.128,115.034 306.984,115.034 C309.84,115.034 311.317,113.821 312.621,112.751 C313.843,111.749 314.896,110.883 317.096,110.883 C317.603,110.883 318.012,110.473 318.012,109.967 C318.012,109.462 317.603,109.052 317.096,109.052" id="Fill-18" fill="#060403"></path>
            <path d="M317.096,117.831 C314.24,117.831 312.763,119.044 311.459,120.114 C310.238,121.116 309.185,121.981 306.984,121.981 C304.784,121.981 303.729,121.116 302.509,120.114 C301.205,119.044 299.728,117.831 296.872,117.831 C294.017,117.831 292.539,119.044 291.235,120.114 C290.015,121.116 288.96,121.981 286.76,121.981 C284.561,121.981 283.506,121.116 282.285,120.114 C280.981,119.044 279.504,117.831 276.649,117.831 C273.793,117.831 272.316,119.044 271.012,120.114 C269.791,121.116 268.737,121.981 266.538,121.981 C264.337,121.981 263.283,121.116 262.063,120.114 C260.76,119.044 259.281,117.831 256.426,117.831 C255.92,117.831 255.51,118.241 255.51,118.747 C255.51,119.253 255.92,119.663 256.426,119.663 C258.625,119.663 259.681,120.528 260.899,121.53 C262.205,122.6 263.681,123.813 266.538,123.813 C269.394,123.813 270.871,122.6 272.175,121.53 C273.396,120.528 274.449,119.663 276.649,119.663 C278.85,119.663 279.902,120.528 281.123,121.53 C282.427,122.6 283.904,123.813 286.76,123.813 C289.615,123.813 291.094,122.6 292.396,121.53 C293.617,120.528 294.672,119.663 296.872,119.663 C299.073,119.663 300.127,120.528 301.348,121.53 C302.65,122.6 304.128,123.813 306.984,123.813 C309.84,123.813 311.317,122.6 312.621,121.53 C313.843,120.528 314.896,119.663 317.096,119.663 C317.603,119.663 318.012,119.253 318.012,118.747 C318.012,118.241 317.603,117.831 317.096,117.831" id="Fill-19" fill="#060403"></path>
            <path d="M43.365,101.383 C43.154,100.924 42.609,100.723 42.151,100.934 C41.182,101.379 40.454,101.977 39.749,102.557 C38.527,103.559 37.474,104.424 35.274,104.424 C33.072,104.424 32.019,103.559 30.799,102.557 C29.496,101.487 28.018,100.274 25.161,100.274 C24.655,100.274 24.245,100.684 24.245,101.189 C24.245,101.695 24.655,102.104 25.161,102.104 C27.36,102.104 28.414,102.969 29.636,103.971 C30.939,105.042 32.417,106.254 35.274,106.254 C38.129,106.254 39.605,105.042 40.909,103.971 C41.553,103.444 42.162,102.944 42.915,102.598 C43.376,102.387 43.575,101.842 43.365,101.383" id="Fill-20" fill="#060403"></path>
            <path d="M85.832,102.104 C86.338,102.104 86.748,101.695 86.748,101.189 C86.748,100.684 86.338,100.274 85.832,100.274 C82.975,100.274 81.497,101.487 80.193,102.557 C78.975,103.559 77.921,104.424 75.719,104.424 C73.52,104.424 72.466,103.559 71.244,102.557 C69.94,101.487 68.463,100.274 65.608,100.274 C62.754,100.274 61.276,101.487 59.973,102.557 C58.751,103.559 57.697,104.424 55.498,104.424 C53.298,104.424 52.242,103.559 51.022,102.557 C49.762,101.52 48.332,100.347 45.643,100.277 C45.141,100.266 44.716,100.663 44.7045915,101.169 C44.69,101.674 45.09,102.094 45.596,102.107 C47.654,102.161 48.677,103.001 49.859,103.971 C51.163,105.042 52.641,106.254 55.498,106.254 C58.352,106.254 59.83,105.042 61.133,103.971 C62.355,102.97 63.408,102.104 65.608,102.104 C67.808,102.104 68.861,102.97 70.084,103.971 C71.387,105.042 72.864,106.254 75.719,106.254 C78.576,106.254 80.054,105.042 81.357,103.971 C82.576,102.97 83.633,102.104 85.832,102.104" id="Fill-21" fill="#060403"></path>
            <path d="M24.245,109.967 C24.245,110.473 24.655,110.883 25.161,110.883 C27.36,110.883 28.414,111.749 29.636,112.751 C30.939,113.821 32.417,115.034 35.274,115.034 C38.129,115.034 39.605,113.821 40.909,112.751 C42.132,111.749 43.185,110.883 45.385,110.883 C47.584,110.883 48.641,111.749 49.859,112.751 C51.163,113.821 52.641,115.034 55.498,115.034 C58.352,115.034 59.83,113.821 61.133,112.751 C62.355,111.749 63.408,110.883 65.608,110.883 C67.808,110.883 68.861,111.749 70.084,112.751 C71.387,113.821 72.864,115.034 75.719,115.034 C78.576,115.034 80.054,113.821 81.357,112.751 C82.576,111.749 83.633,110.883 85.832,110.883 C86.338,110.883 86.748,110.473 86.748,109.967 C86.748,109.462 86.338,109.052 85.832,109.052 C82.975,109.052 81.497,110.265 80.193,111.336 C78.975,112.337 77.921,113.203 75.719,113.203 C73.52,113.203 72.466,112.337 71.246,111.336 C69.94,110.265 68.465,109.052 65.608,109.052 C62.754,109.052 61.276,110.265 59.973,111.336 C58.751,112.337 57.697,113.203 55.498,113.203 C53.298,113.203 52.242,112.337 51.022,111.336 C49.719,110.265 48.241,109.052 45.385,109.052 C42.53,109.052 41.053,110.265 39.749,111.336 C38.527,112.337 37.474,113.203 35.274,113.203 C33.072,113.203 32.019,112.337 30.799,111.336 C29.496,110.265 28.018,109.052 25.161,109.052 C24.655,109.052 24.245,109.462 24.245,109.967" id="Fill-22" fill="#060403"></path>
            <path d="M24.245,118.747 C24.245,119.253 24.655,119.663 25.161,119.663 C27.36,119.663 28.414,120.528 29.636,121.53 C30.939,122.6 32.417,123.813 35.274,123.813 C38.129,123.813 39.605,122.6 40.909,121.53 C42.132,120.528 43.185,119.663 45.385,119.663 C47.584,119.663 48.641,120.528 49.859,121.53 C51.163,122.6 52.641,123.813 55.498,123.813 C58.352,123.813 59.83,122.6 61.133,121.53 C62.355,120.528 63.408,119.663 65.608,119.663 C67.808,119.663 68.861,120.528 70.084,121.53 C71.387,122.6 72.864,123.813 75.719,123.813 C78.576,123.813 80.054,122.6 81.357,121.53 C82.576,120.528 83.633,119.663 85.832,119.663 C86.338,119.663 86.748,119.253 86.748,118.747 C86.748,118.241 86.338,117.831 85.832,117.831 C82.975,117.831 81.497,119.044 80.193,120.114 C78.975,121.116 77.921,121.981 75.719,121.981 C73.52,121.981 72.466,121.116 71.246,120.114 C69.94,119.044 68.465,117.831 65.608,117.831 C62.754,117.831 61.276,119.044 59.973,120.114 C58.751,121.116 57.697,121.981 55.498,121.981 C53.298,121.981 52.242,121.116 51.022,120.114 C49.719,119.044 48.241,117.831 45.385,117.831 C42.53,117.831 41.053,119.044 39.749,120.114 C38.527,121.116 37.474,121.981 35.274,121.981 C33.072,121.981 32.019,121.116 30.799,120.114 C29.496,119.044 28.018,117.831 25.161,117.831 C24.655,117.831 24.245,118.241 24.245,118.747" id="Fill-23" fill="#060403"></path>
        </g>
    </g>
</svg>