<svg xmlns="http://www.w3.org/2000/svg" width="158.891" height="150.138" viewBox="0 0 158.891 150.138"><g transform="translate(0 -12.946)"><path d="M304.4,387.7a2.535,2.535,0,0,0-2.535,2.535v18.376a2.535,2.535,0,1,0,5.071,0V390.233A2.535,2.535,0,0,0,304.4,387.7Z" transform="translate(-199.817 -248.061)" fill="#189368"/><path d="M155.667,387.7a2.535,2.535,0,0,0-2.536,2.535v18.376a2.535,2.535,0,1,0,5.071,0V390.233A2.536,2.536,0,0,0,155.667,387.7Z" transform="translate(-101.363 -248.061)" fill="#189368"/><path d="M158.761,131.228l-26.627-79.8a2.535,2.535,0,0,0-4.81,0l-8.005,23.992L106.992,38.475a2.535,2.535,0,0,0-4.81,0l-6.2,18.569L81.851,14.679a2.535,2.535,0,0,0-4.81,0L62.9,57.045l-6.2-18.569a2.535,2.535,0,0,0-4.81,0L39.572,75.418,31.567,51.427a2.535,2.535,0,0,0-4.81,0L.13,131.228a2.535,2.535,0,0,0,2.405,3.338H26.627v25.982a2.535,2.535,0,0,0,5.071,0V134.566H76.91v25.982a2.535,2.535,0,0,0,5.071,0V134.566h45.212v25.982a2.535,2.535,0,0,0,5.071,0V134.566h24.091a2.535,2.535,0,0,0,2.405-3.338ZM104.587,47.288l12.058,36.141L110.718,101.2,98.659,65.054Zm-50.283,0,5.928,17.767L48.173,101.2,42.245,83.429Zm-25.142,63.88a2.535,2.535,0,0,0-2.535,2.535v15.791H6.054L29.162,60.24,45.5,109.207l-6.769,20.288H31.7V113.7A2.536,2.536,0,0,0,29.162,111.169ZM81.981,115.6l13.036-13.979a2.536,2.536,0,0,0-3.709-3.458l-9.327,10V88.332a2.535,2.535,0,1,0-5.071,0V108l-9.341-9.854a2.536,2.536,0,0,0-3.681,3.489L76.91,115.368v14.127H44.076l35.369-106,35.369,106H81.981Zm50.283,13.9V113.7a2.535,2.535,0,1,0-5.071,0v15.791H120.16l-6.769-20.288L129.729,60.24l23.108,69.255Z" fill="#189368"/></g></svg>