<svg width="344" height="128" xmlns="http://www.w3.org/2000/svg" xmlns:xlink="http://www.w3.org/1999/xlink">
  <defs>
    <path id="a" d="M.06.957h34.114v73.735H.06z"/>
    <path id="c" d="M.875.336h87.094v74.977H.875z"/>
  </defs>
  <g fill="none" fill-rule="evenodd">
    <mask id="b" fill="#fff">
      <use xlink:href="#a"/>
    </mask>
    <path d="M10.563 40.517v23.611h4.556c2.14 0 3.815-.31 5.024-.932 1.207-.621 2.123-1.483 2.744-2.589.621-1.103 1-2.416 1.138-3.935a54.72 54.72 0 00.209-4.97c0-1.865-.104-3.486-.312-4.868-.206-1.38-.621-2.553-1.242-3.521-.691-.966-1.623-1.673-2.796-2.123-1.175-.448-2.728-.673-4.661-.673h-4.66zm0-29.619v20.298h4.764c3.522 0 5.886-.88 7.093-2.64 1.209-1.761 1.814-4.332 1.814-7.715 0-3.315-.674-5.8-2.02-7.457-1.347-1.656-3.78-2.486-7.301-2.486h-4.35zM0 74.692V.957h15.432c3.381 0 6.263.518 8.646 1.553 2.382 1.036 4.332 2.418 5.852 4.142a15.554 15.554 0 013.261 5.955c.656 2.245.983 4.575.983 6.991v2.692c0 2.004-.154 3.694-.465 5.075-.312 1.382-.776 2.589-1.398 3.625-1.175 1.933-2.97 3.59-5.386 4.97 2.486 1.175 4.315 2.9 5.489 5.178 1.173 2.278 1.76 5.385 1.76 9.32v4.144c0 6.489-1.57 11.46-4.711 14.911-3.142 3.454-8.165 5.179-15.068 5.179H0z" mask="url(#b)"/>

    <path d="M52.919 74.692V.957H84.4v9.941H63.481v21.644h18.227v9.942H63.481v21.644H84.4v10.564H52.919M110.602 40.517v23.611h4.556c2.139 0 3.813-.31 5.023-.932 1.206-.621 2.122-1.483 2.745-2.589.62-1.103 1-2.416 1.138-3.935.138-1.517.207-3.175.207-4.97 0-1.865-.104-3.486-.31-4.868-.209-1.38-.623-2.553-1.244-3.521-.691-.966-1.622-1.673-2.796-2.123-1.175-.448-2.728-.673-4.659-.673h-4.66zm0-29.619v20.298h4.762c3.522 0 5.886-.88 7.095-2.64 1.207-1.761 1.812-4.332 1.812-7.715 0-3.315-.673-5.8-2.02-7.457-1.346-1.656-3.78-2.486-7.3-2.486h-4.349zm-10.564 63.794V.957h15.43c3.383 0 6.266.518 8.647 1.553 2.382 1.036 4.332 2.418 5.852 4.142a15.545 15.545 0 013.263 5.955c.654 2.245.983 4.575.983 6.991v2.692c0 2.004-.156 3.694-.467 5.075-.31 1.382-.776 2.589-1.397 3.625-1.176 1.933-2.97 3.59-5.385 4.97 2.484 1.175 4.313 2.9 5.489 5.178 1.173 2.278 1.76 5.385 1.76 9.32v4.144c0 6.489-1.572 11.46-4.713 14.911-3.142 3.454-8.165 5.179-15.067 5.179h-14.395zM163.519 10.898v22.991h6.007c1.865 0 3.347-.259 4.453-.777 1.104-.518 1.968-1.258 2.588-2.226.552-.966.933-2.157 1.14-3.573.208-1.415.311-3.055.311-4.919 0-1.864-.103-3.503-.311-4.919-.207-1.414-.621-2.642-1.243-3.677-1.312-1.931-3.797-2.9-7.456-2.9h-5.489zm-10.563 63.794V.957h16.984c12.427 0 18.641 7.215 18.641 21.644 0 4.35-.674 8.044-2.019 11.081-1.347 3.039-3.712 5.489-7.093 7.353l11.39 33.657h-11.184l-9.838-31.483h-6.318v31.483h-10.563z"/>

    <g transform="translate(205)">

      <mask id="d" fill="#fff">
        <use xlink:href="#c"/>
      </mask>

      <path d="M35.051.957v57.165c0 2.418-.433 4.645-1.295 6.68a16.984 16.984 0 01-3.678 5.436 17.516 17.516 0 01-5.487 3.729c-2.072.896-4.281 1.346-6.629 1.346-2.347 0-4.539-.45-6.575-1.346a17.695 17.695 0 01-5.437-3.729 17.667 17.667 0 01-3.727-5.436c-.9-2.035-1.348-4.262-1.348-6.68V.957h10.563v56.129c0 2.625.623 4.558 1.865 5.8s2.796 1.864 4.659 1.864c1.864 0 3.418-.622 4.661-1.864 1.243-1.242 1.863-3.175 1.863-5.8V.957h10.565M87.969 22.187H77.406v-2.382c0-2.416-.569-4.505-1.709-6.265-1.138-1.761-3.054-2.642-5.747-2.642-1.45 0-2.624.277-3.52.83a6.95 6.95 0 00-2.176 2.07c-.553.899-.931 1.916-1.139 3.056a19.861 19.861 0 00-.31 3.572c0 1.45.051 2.659.156 3.625.103.968.362 1.83.775 2.589.414.76 1.018 1.416 1.812 1.967.794.554 1.881 1.106 3.263 1.657l8.078 3.211c2.345.898 4.245 1.951 5.696 3.158 1.449 1.209 2.589 2.607 3.417 4.195.759 1.656 1.277 3.539 1.554 5.643.275 2.107.413 4.506.413 7.197 0 3.108-.31 5.991-.932 8.648-.621 2.659-1.622 4.92-3.003 6.783-1.449 1.935-3.35 3.453-5.696 4.557-2.348 1.104-5.213 1.657-8.596 1.657-2.553 0-4.935-.45-7.143-1.346-2.211-.897-4.111-2.139-5.698-3.729a18.142 18.142 0 01-3.78-5.54c-.932-2.105-1.397-4.401-1.397-6.886v-3.936h10.562v3.314c0 1.934.57 3.677 1.708 5.229 1.141 1.554 3.057 2.331 5.748 2.331 1.795 0 3.195-.259 4.195-.777a5.58 5.58 0 002.331-2.226c.55-.966.879-2.123.983-3.47.104-1.346.155-2.848.155-4.505 0-1.932-.069-3.521-.207-4.763-.138-1.243-.414-2.242-.828-3.003a5.863 5.863 0 00-1.916-1.865c-.794-.482-1.848-.999-3.159-1.553l-7.56-3.107c-4.556-1.864-7.61-4.332-9.164-7.404-1.553-3.071-2.332-6.921-2.332-11.547 0-2.76.38-5.385 1.141-7.871.759-2.485 1.898-4.624 3.416-6.42 1.45-1.795 3.297-3.227 5.541-4.298C64.582.871 67.258.336 70.364.336c2.622 0 5.022.483 7.198 1.45 2.175.967 4.055 2.244 5.643 3.831 3.176 3.314 4.764 7.112 4.764 11.392v5.178" mask="url(#d)"/>
    </g>

    <path d="M343.815 95.611c-1.035.552-2.398 1.069-4.089 1.554-1.693.482-3.676.724-5.954.724-2.901 0-5.334-.847-7.301-2.537-1.969-1.693-2.953-3.988-2.953-6.887 0-1.658.242-3.142.726-4.453a12.618 12.618 0 012.07-3.625 22.222 22.222 0 013.055-2.9 81.94 81.94 0 013.78-2.795h5.282c-2.071 2.002-3.695 4.142-4.867 6.42-1.175 2.279-1.76 4.487-1.76 6.628 0 1.657.5 2.968 1.501 3.936 1 .965 2.191 1.449 3.572 1.449 1.174 0 2.191-.122 3.055-.363a11.58 11.58 0 002.434-.983l1.449 3.832zm0-94.654v57.165c0 2.418-.43 4.645-1.293 6.68a17.046 17.046 0 01-3.677 5.436 17.543 17.543 0 01-5.488 3.729c-2.072.896-4.283 1.346-6.628 1.346-2.348 0-4.54-.45-6.577-1.346a17.687 17.687 0 01-5.435-3.729 17.694 17.694 0 01-3.73-5.436c-.897-2.035-1.345-4.262-1.345-6.68V.957h10.562v56.129c0 2.625.622 4.558 1.864 5.8 1.243 1.242 2.797 1.864 4.661 1.864 1.864 0 3.418-.622 4.66-1.864 1.243-1.242 1.864-3.175 1.864-5.8V.957h10.562zM96.037 121.815l4.205-2.846c1.609 2.722 3.587 4.268 6.864 4.268 3.032 0 5.505-1.546 5.505-3.897 0-2.349-1.608-3.648-5.257-4.947l-2.413-.928c-5.442-2.041-7.359-5.443-7.359-9.153 0-4.639 4.02-8.226 9.649-8.226 3.958 0 7.359 1.793 9.277 5.567l-4.145 2.412c-.99-2.041-2.721-3.217-5.132-3.217-2.351 0-4.392 1.237-4.392 3.403 0 1.916.927 3.401 4.515 4.699l2.537.927c5.256 1.918 8.04 4.702 8.04 9.279 0 4.948-4.206 8.844-10.949 8.844-4.576 0-8.472-2.042-10.945-6.185M124.981 127.504h5.319V83.593h-5.319zM149.409 88.479c0-2.104 1.732-3.772 3.835-3.772 2.166 0 3.834 1.668 3.834 3.772 0 2.165-1.668 3.834-3.834 3.834a3.814 3.814 0 01-3.835-3.834zm-5.937 20.225h18.864c-.741-5.073-4.699-7.793-9.401-7.732-4.515 0-8.349 3.03-9.463 7.732zm-5.75 3.339c0-8.968 6.864-15.957 15.522-15.957 8.659 0 14.968 6.247 15.091 17.256h-25.11c.496 5.504 4.763 9.647 10.391 9.647 3.897 0 7.05-1.731 9.029-3.709l3.402 3.709c-2.658 2.784-7.051 5.011-12.431 5.011-9.154 0-15.894-7.051-15.894-15.957zM175.51 96.581h5.319v3.525c2.351-2.969 5.999-4.02 9.587-4.02 6.988 0 11.937 4.886 11.937 12.555v18.863h-5.32V108.95c0-4.514-2.969-7.854-7.793-7.854-4.329 0-7.299 2.412-8.411 6.432v19.976h-5.319V96.581M210.083 88.479c0-2.104 1.731-3.772 3.835-3.772 2.166 0 3.834 1.668 3.834 3.772 0 2.165-1.668 3.834-3.834 3.834a3.813 3.813 0 01-3.835-3.834zm1.175 39.025h5.319V96.581h-5.319v30.923zM223.009 121.815l4.205-2.846c1.608 2.722 3.588 4.268 6.866 4.268 3.029 0 5.503-1.546 5.503-3.897 0-2.349-1.606-3.648-5.256-4.947l-2.412-.928c-5.442-2.041-7.36-5.443-7.36-9.153 0-4.639 4.02-8.226 9.648-8.226 3.959 0 7.36 1.793 9.277 5.567l-4.144 2.412c-.988-2.041-2.721-3.217-5.133-3.217-2.349 0-4.39 1.237-4.39 3.403 0 1.916.927 3.401 4.514 4.699l2.535.927c5.258 1.918 8.04 4.702 8.04 9.279 0 4.948-4.205 8.844-10.946 8.844-4.577 0-8.474-2.042-10.947-6.185M299.342 102.598c.754.346 1.362.846 2.006 1.373 1.302 1.071 2.78 2.283 5.636 2.283 2.856 0 4.333-1.212 5.637-2.283 1.222-1.002 2.276-1.867 4.477-1.867a.914.914 0 100-1.83c-2.858 0-4.335 1.213-5.639 2.283-1.221 1.002-2.274 1.867-4.475 1.867-2.2 0-3.254-.865-4.475-1.867-.705-.58-1.435-1.178-2.402-1.623a.917.917 0 00-.765 1.664M256.426 102.104c2.199 0 3.255.866 4.473 1.867 1.306 1.071 2.782 2.283 5.639 2.283 2.856 0 4.333-1.212 5.637-2.283 1.221-1.001 2.274-1.867 4.474-1.867 2.201 0 3.253.866 4.474 1.867 1.304 1.071 2.781 2.283 5.637 2.283 2.855 0 4.334-1.212 5.637-2.283 1.184-.97 2.207-1.81 4.265-1.864a.914.914 0 10-.047-1.83c-2.688.07-4.119 1.243-5.38 2.28-1.22 1.002-2.275 1.867-4.475 1.867-2.199 0-3.254-.865-4.475-1.867-1.304-1.07-2.781-2.283-5.636-2.283s-4.333 1.213-5.636 2.283c-1.221 1.002-2.276 1.867-4.475 1.867-2.201 0-3.255-.865-4.475-1.867-1.303-1.07-2.782-2.283-5.637-2.283a.916.916 0 100 1.83M317.096 109.052c-2.856 0-4.333 1.213-5.637 2.283-1.221 1.002-2.274 1.868-4.475 1.868-2.2 0-3.254-.866-4.475-1.868-1.304-1.07-2.781-2.283-5.637-2.283-2.855 0-4.333 1.213-5.637 2.283-1.22 1.002-2.275 1.868-4.475 1.868-2.199 0-3.254-.866-4.475-1.868-1.304-1.07-2.781-2.283-5.636-2.283-2.856 0-4.333 1.213-5.637 2.283-1.221 1.002-2.275 1.868-4.474 1.868-2.201 0-3.255-.866-4.475-1.868-1.303-1.07-2.782-2.283-5.637-2.283a.916.916 0 100 1.831c2.199 0 3.255.866 4.473 1.868 1.306 1.07 2.782 2.283 5.639 2.283 2.856 0 4.333-1.213 5.637-2.283 1.221-1.002 2.274-1.868 4.474-1.868 2.201 0 3.253.866 4.474 1.868 1.304 1.07 2.781 2.283 5.637 2.283 2.855 0 4.334-1.213 5.637-2.283 1.22-1.002 2.275-1.868 4.475-1.868 2.201 0 3.255.866 4.476 1.868 1.302 1.07 2.78 2.283 5.636 2.283 2.856 0 4.333-1.213 5.637-2.283 1.222-1.002 2.276-1.868 4.475-1.868a.915.915 0 100-1.831M317.096 117.831c-2.856 0-4.333 1.213-5.637 2.283-1.221 1.002-2.274 1.867-4.475 1.867-2.2 0-3.254-.865-4.475-1.867-1.304-1.07-2.781-2.283-5.637-2.283-2.855 0-4.333 1.213-5.637 2.283-1.22 1.002-2.275 1.867-4.475 1.867-2.199 0-3.254-.865-4.475-1.867-1.304-1.07-2.781-2.283-5.636-2.283-2.856 0-4.333 1.213-5.637 2.283-1.221 1.002-2.275 1.867-4.474 1.867-2.201 0-3.255-.865-4.475-1.867-1.303-1.07-2.782-2.283-5.637-2.283a.916.916 0 100 1.832c2.199 0 3.255.865 4.473 1.867 1.306 1.07 2.782 2.283 5.639 2.283 2.856 0 4.333-1.213 5.637-2.283 1.221-1.002 2.274-1.867 4.474-1.867 2.201 0 3.253.865 4.474 1.867 1.304 1.07 2.781 2.283 5.637 2.283 2.855 0 4.334-1.213 5.637-2.283 1.22-1.002 2.275-1.867 4.475-1.867 2.201 0 3.255.865 4.476 1.867 1.302 1.07 2.78 2.283 5.636 2.283 2.856 0 4.333-1.213 5.637-2.283 1.222-1.002 2.276-1.867 4.475-1.867a.916.916 0 100-1.832M43.365 101.383a.916.916 0 00-1.214-.449c-.969.445-1.697 1.043-2.402 1.623-1.222 1.002-2.275 1.867-4.475 1.867-2.202 0-3.255-.865-4.475-1.867-1.303-1.07-2.781-2.283-5.638-2.283a.916.916 0 100 1.83c2.199 0 3.253.865 4.475 1.867 1.303 1.071 2.781 2.283 5.638 2.283 2.855 0 4.331-1.212 5.635-2.283.644-.527 1.253-1.027 2.006-1.373a.916.916 0 00.45-1.215M85.832 102.104a.915.915 0 100-1.83c-2.857 0-4.335 1.213-5.639 2.283-1.218 1.002-2.272 1.867-4.474 1.867-2.199 0-3.253-.865-4.475-1.867-1.304-1.07-2.781-2.283-5.636-2.283-2.854 0-4.332 1.213-5.635 2.283-1.222 1.002-2.276 1.867-4.475 1.867-2.2 0-3.256-.865-4.476-1.867-1.26-1.037-2.69-2.21-5.379-2.28a.918.918 0 00-.938.892.914.914 0 00.891.938c2.058.054 3.081.894 4.263 1.864 1.304 1.071 2.782 2.283 5.639 2.283 2.854 0 4.332-1.212 5.635-2.283 1.222-1.001 2.275-1.867 4.475-1.867 2.2 0 3.253.866 4.476 1.867 1.303 1.071 2.78 2.283 5.635 2.283 2.857 0 4.335-1.212 5.638-2.283 1.219-1.001 2.276-1.867 4.475-1.867M24.245 109.967c0 .506.41.916.916.916 2.199 0 3.253.866 4.475 1.868 1.303 1.07 2.781 2.283 5.638 2.283 2.855 0 4.331-1.213 5.635-2.283 1.223-1.002 2.276-1.868 4.476-1.868 2.199 0 3.256.866 4.474 1.868 1.304 1.07 2.782 2.283 5.639 2.283 2.854 0 4.332-1.213 5.635-2.283 1.222-1.002 2.275-1.868 4.475-1.868 2.2 0 3.253.866 4.476 1.868 1.303 1.07 2.78 2.283 5.635 2.283 2.857 0 4.335-1.213 5.638-2.283 1.219-1.002 2.276-1.868 4.475-1.868a.916.916 0 100-1.831c-2.857 0-4.335 1.213-5.639 2.283-1.218 1.002-2.272 1.868-4.474 1.868-2.199 0-3.253-.866-4.473-1.868-1.306-1.07-2.781-2.283-5.638-2.283-2.854 0-4.332 1.213-5.635 2.283-1.222 1.002-2.276 1.868-4.475 1.868-2.2 0-3.256-.866-4.476-1.868-1.303-1.07-2.781-2.283-5.637-2.283-2.855 0-4.332 1.213-5.636 2.283-1.222 1.002-2.275 1.868-4.475 1.868-2.202 0-3.255-.866-4.475-1.868-1.303-1.07-2.781-2.283-5.638-2.283a.916.916 0 00-.916.915M24.245 118.747c0 .505.41.916.916.916 2.199 0 3.253.865 4.475 1.867 1.303 1.07 2.781 2.283 5.638 2.283 2.855 0 4.331-1.213 5.635-2.283 1.223-1.002 2.276-1.867 4.476-1.867 2.199 0 3.256.865 4.474 1.867 1.304 1.07 2.782 2.283 5.639 2.283 2.854 0 4.332-1.213 5.635-2.283 1.222-1.002 2.275-1.867 4.475-1.867 2.2 0 3.253.865 4.476 1.867 1.303 1.07 2.78 2.283 5.635 2.283 2.857 0 4.335-1.213 5.638-2.283 1.219-1.002 2.276-1.867 4.475-1.867a.917.917 0 000-1.832c-2.857 0-4.335 1.213-5.639 2.283-1.218 1.002-2.272 1.867-4.474 1.867-2.199 0-3.253-.865-4.473-1.867-1.306-1.07-2.781-2.283-5.638-2.283-2.854 0-4.332 1.213-5.635 2.283-1.222 1.002-2.276 1.867-4.475 1.867-2.2 0-3.256-.865-4.476-1.867-1.303-1.07-2.781-2.283-5.637-2.283-2.855 0-4.332 1.213-5.636 2.283-1.222 1.002-2.275 1.867-4.475 1.867-2.202 0-3.255-.865-4.475-1.867-1.303-1.07-2.781-2.283-5.638-2.283a.916.916 0 00-.916.916"/>
  </g>
</svg>
