<svg xmlns="http://www.w3.org/2000/svg" width="56.173" height="33.189" viewBox="0 0 56.173 33.189"><g transform="translate(0 -84.08)"><g transform="translate(0 84.08)"><path d="M48.535,88.84a5.336,5.336,0,0,1-3.962-1.775,3.7,3.7,0,0,0-5.709,0,5.31,5.31,0,0,1-7.924,0,3.7,3.7,0,0,0-5.709,0,5.309,5.309,0,0,1-7.924,0,3.7,3.7,0,0,0-5.709,0,5.31,5.31,0,0,1-7.924,0A3.772,3.772,0,0,0,.82,85.72a.82.82,0,1,1,0-1.64,5.336,5.336,0,0,1,3.962,1.775,3.7,3.7,0,0,0,5.709,0,5.309,5.309,0,0,1,7.924,0,3.7,3.7,0,0,0,5.709,0,5.309,5.309,0,0,1,7.924,0,3.7,3.7,0,0,0,5.709,0,5.31,5.31,0,0,1,7.924,0,3.7,3.7,0,0,0,5.71,0,5.337,5.337,0,0,1,3.962-1.775.82.82,0,0,1,0,1.64A3.773,3.773,0,0,0,52.5,87.065,5.336,5.336,0,0,1,48.535,88.84Z" transform="translate(0 -84.08)"/></g><g transform="translate(0 91.187)"><path d="M48.535,140.84a5.336,5.336,0,0,1-3.962-1.775,3.7,3.7,0,0,0-5.709,0,5.31,5.31,0,0,1-7.924,0,3.7,3.7,0,0,0-5.709,0,5.309,5.309,0,0,1-7.924,0,3.7,3.7,0,0,0-5.709,0,5.31,5.31,0,0,1-7.924,0A3.772,3.772,0,0,0,.82,137.72a.82.82,0,0,1,0-1.64,5.336,5.336,0,0,1,3.962,1.775,3.7,3.7,0,0,0,5.709,0,5.309,5.309,0,0,1,7.924,0,3.7,3.7,0,0,0,5.709,0,5.309,5.309,0,0,1,7.924,0,3.7,3.7,0,0,0,5.709,0,5.31,5.31,0,0,1,7.924,0,3.7,3.7,0,0,0,5.71,0,5.336,5.336,0,0,1,3.962-1.775.82.82,0,0,1,0,1.64,3.773,3.773,0,0,0-2.855,1.345A5.336,5.336,0,0,1,48.535,140.84Z" transform="translate(0 -136.08)"/></g><g transform="translate(0 98.295)"><path d="M48.535,192.841a5.336,5.336,0,0,1-3.962-1.775,3.7,3.7,0,0,0-5.709,0,5.309,5.309,0,0,1-7.924,0,3.7,3.7,0,0,0-5.709,0,5.309,5.309,0,0,1-7.924,0,3.7,3.7,0,0,0-5.709,0,5.309,5.309,0,0,1-7.924,0A3.772,3.772,0,0,0,.82,189.721a.82.82,0,0,1,0-1.64,5.336,5.336,0,0,1,3.962,1.775,3.7,3.7,0,0,0,5.709,0,5.309,5.309,0,0,1,7.924,0,3.7,3.7,0,0,0,5.709,0,5.309,5.309,0,0,1,7.924,0,3.7,3.7,0,0,0,5.709,0,5.31,5.31,0,0,1,7.924,0,3.7,3.7,0,0,0,5.71,0,5.336,5.336,0,0,1,3.962-1.775.82.82,0,0,1,0,1.64,3.773,3.773,0,0,0-2.855,1.345A5.336,5.336,0,0,1,48.535,192.841Z" transform="translate(0 -188.081)"/></g><g transform="translate(0 105.402)"><path d="M48.535,244.841a5.336,5.336,0,0,1-3.962-1.775,3.7,3.7,0,0,0-5.709,0,5.309,5.309,0,0,1-7.924,0,3.7,3.7,0,0,0-5.709,0,5.309,5.309,0,0,1-7.924,0,3.7,3.7,0,0,0-5.709,0,5.309,5.309,0,0,1-7.924,0A3.772,3.772,0,0,0,.82,241.721a.82.82,0,0,1,0-1.64,5.336,5.336,0,0,1,3.962,1.775,3.7,3.7,0,0,0,5.709,0,5.309,5.309,0,0,1,7.924,0,3.7,3.7,0,0,0,5.709,0,5.309,5.309,0,0,1,7.924,0,3.7,3.7,0,0,0,5.709,0,5.31,5.31,0,0,1,7.924,0,3.7,3.7,0,0,0,5.71,0,5.336,5.336,0,0,1,3.962-1.775.82.82,0,0,1,0,1.64,3.773,3.773,0,0,0-2.855,1.345A5.336,5.336,0,0,1,48.535,244.841Z" transform="translate(0 -240.081)"/></g><g transform="translate(0 112.509)"><path d="M48.535,296.841a5.336,5.336,0,0,1-3.962-1.775,3.7,3.7,0,0,0-5.709,0,5.309,5.309,0,0,1-7.924,0,3.7,3.7,0,0,0-5.709,0,5.309,5.309,0,0,1-7.924,0,3.7,3.7,0,0,0-5.709,0,5.309,5.309,0,0,1-7.924,0A3.773,3.773,0,0,0,.82,293.721a.82.82,0,1,1,0-1.64,5.336,5.336,0,0,1,3.962,1.775,3.7,3.7,0,0,0,5.709,0,5.309,5.309,0,0,1,7.924,0,3.7,3.7,0,0,0,5.709,0,5.309,5.309,0,0,1,7.924,0,3.7,3.7,0,0,0,5.709,0,5.31,5.31,0,0,1,7.924,0,3.7,3.7,0,0,0,5.71,0,5.337,5.337,0,0,1,3.962-1.775.82.82,0,1,1,0,1.64,3.773,3.773,0,0,0-2.855,1.345A5.336,5.336,0,0,1,48.535,296.841Z" transform="translate(0 -292.081)"/></g></g></svg>
