<?xml version="1.0" standalone="no"?>
<!DOCTYPE svg PUBLIC "-//W3C//DTD SVG 20010904//EN"
 "http://www.w3.org/TR/2001/REC-SVG-20010904/DTD/svg10.dtd">
<svg version="1.0" xmlns="http://www.w3.org/2000/svg"
 width="1210.000000pt" height="1210.000000pt" viewBox="0 0 1210.000000 1210.000000"
 preserveAspectRatio="xMidYMid meet">
<metadata>
Created by potrace 1.11, written by Peter Selinger 2001-2013
</metadata>
<g transform="translate(0.000000,1210.000000) scale(0.100000,-0.100000)"
fill="#000000" stroke="none">
<path d="M1075 12080 c-322 -59 -598 -225 -797 -480 -78 -101 -68 -85 -130
-200 -68 -128 -112 -264 -135 -415 -11 -69 -10 -9807 0 -9874 52 -336 217
-617 493 -841 119 -96 321 -193 478 -230 45 -11 95 -23 111 -27 17 -4 2235 -9
4930 -10 4713 -1 4904 -1 5000 17 349 64 657 263 849 550 90 134 160 292 190
430 9 41 20 86 24 100 11 39 12 9794 1 9870 -44 301 -177 562 -394 773 -31 31
-162 131 -205 158 -132 82 -301 150 -435 174 -16 2 -41 8 -55 12 -14 4 -2230
9 -4925 10 -4713 1 -4904 1 -5000 -17z m7503 -1851 c40 -4 89 -11 110 -14 20
-3 55 -8 77 -12 82 -11 263 -62 365 -102 293 -114 530 -308 718 -588 23 -34
42 -64 42 -68 0 -3 11 -22 24 -43 27 -43 105 -221 131 -297 51 -152 94 -369
120 -600 4 -33 8 -193 10 -355 l2 -296 -603 0 c-332 0 -604 2 -605 5 0 3 -2
130 -3 281 -2 151 -6 304 -11 340 -36 308 -183 503 -430 571 -108 30 -285 30
-398 0 -223 -59 -360 -212 -410 -461 -25 -121 -29 -157 -29 -290 0 -163 9
-235 49 -395 26 -106 87 -264 136 -355 150 -275 497 -651 987 -1070 73 -62
241 -222 368 -350 516 -518 780 -955 895 -1480 14 -63 28 -133 32 -154 3 -21
7 -48 10 -60 5 -23 9 -59 22 -188 10 -104 10 -504 1 -619 -39 -454 -172 -835
-391 -1119 -56 -73 -208 -227 -277 -282 -181 -143 -425 -253 -690 -311 -195
-43 -295 -52 -565 -52 -195 0 -303 6 -385 20 -118 20 -165 29 -230 45 -188 48
-364 123 -509 216 -47 31 -88 60 -91 63 -3 4 -16 15 -29 24 -13 9 -55 46 -93
82 -257 248 -430 608 -502 1045 -15 90 -18 115 -32 250 -8 74 -12 760 -5 761
36 7 1194 2 1199 -5 3 -5 6 -167 8 -360 1 -193 4 -362 7 -376 2 -14 8 -45 11
-68 4 -24 16 -74 28 -110 84 -276 281 -418 588 -426 88 -2 166 5 215 18 6 1
26 6 45 10 116 27 258 137 319 247 80 144 105 272 105 544 0 174 -4 231 -22
334 -26 140 -86 330 -138 434 -72 142 -210 344 -316 463 -137 154 -284 303
-445 451 -96 89 -115 107 -179 161 -146 125 -486 458 -604 591 -36 41 -72 81
-80 90 -33 33 -150 180 -217 271 -197 267 -313 502 -400 805 -56 192 -77 308
-98 535 -8 78 -8 401 -1 490 8 91 17 168 32 265 13 79 59 261 90 355 117 352
350 664 629 846 33 21 69 45 80 52 35 22 198 98 250 116 28 10 57 22 66 26 37
19 277 72 401 88 145 19 489 26 616 11z m-4503 -113 c66 -5 127 -10 136 -11 9
-2 40 -6 70 -10 251 -29 525 -115 711 -221 46 -26 85 -51 88 -54 3 -3 18 -14
34 -24 76 -48 185 -155 265 -261 143 -186 230 -388 290 -665 48 -227 56 -337
56 -790 0 -440 -9 -552 -60 -770 -31 -131 -27 -118 -64 -221 -118 -331 -320
-570 -605 -715 -53 -27 -94 -53 -93 -59 2 -5 28 -19 58 -30 171 -67 310 -157
440 -285 162 -160 282 -367 353 -610 38 -130 54 -206 81 -390 27 -189 28
-1315 1 -1457 -3 -11 -7 -44 -11 -74 -3 -30 -8 -61 -10 -69 -2 -8 -7 -31 -10
-50 -23 -138 -95 -350 -166 -493 -28 -55 -124 -209 -149 -240 -6 -7 -27 -32
-48 -57 -251 -301 -655 -503 -1112 -556 -30 -3 -57 -8 -60 -9 -23 -13 -392
-18 -1305 -19 l-1060 0 -3 4064 c-1 2236 0 4070 2 4075 4 12 1987 13 2171 1z"/>
<path d="M3182 7883 l3 -1077 280 -1 c427 0 559 25 710 135 150 110 229 269
264 530 11 82 12 791 1 851 -4 24 -11 64 -14 88 -30 224 -150 412 -309 486
-123 57 -172 62 -575 64 l-362 2 2 -1078z"/>
<path d="M3190 5642 c-7 -3 -10 -430 -10 -1253 l0 -1250 423 2 c428 1 501 6
603 42 207 74 307 216 355 507 9 52 13 227 13 580 0 647 -6 738 -70 930 -16
48 -72 162 -83 170 -4 3 -19 22 -35 42 -91 122 -277 205 -503 224 -76 7 -676
11 -693 6z"/>
</g>
</svg>
